Coordinates
version=1
nRows=11
nColumns=40
inDegrees=yes

Units are S.I. units (second, meters, Newtons, ...)
If the header above contains a line with 'inDegrees', this indicates whether rotational values are in degrees (yes) or radians (no).

endheader
time	pelvis_tilt	pelvis_list	pelvis_rotation	pelvis_tx	pelvis_ty	pelvis_tz	hip_flexion_r	hip_adduction_r	hip_rotation_r	knee_angle_r	knee_angle_r_beta	ankle_angle_r	subtalar_angle_r	mtp_angle_r	hip_flexion_l	hip_adduction_l	hip_rotation_l	knee_angle_l	knee_angle_l_beta	ankle_angle_l	subtalar_angle_l	mtp_angle_l	lumbar_extension	lumbar_bending	lumbar_rotation	arm_flex_r	arm_add_r	arm_rot_r	elbow_flex_r	pro_sup_r	wrist_flex_r	wrist_dev_r	arm_flex_l	arm_add_l	arm_rot_l	elbow_flex_l	pro_sup_l	wrist_flex_l	wrist_dev_l
      7.92500000	     14.30896037	      7.31435060	   -172.23683213	      0.26534601	      0.75349747	     -0.93667028	     24.88444529	    -33.99488494	    -34.78815904	     19.46910924	      0.33980006	    -12.15562137	      0.00000000	      0.00000000	     42.05617147	    -39.83789380	     -9.45496652	     18.82305406	      0.32852427	    -14.94390294	      0.00000000	      0.00000000	    -13.64772442	      3.82563542	     -2.64830348	     28.66245535	    -17.95215194	     77.76093638	     21.35782053	     81.95886291	      0.00000000	      0.00000000	     30.70142407	    -16.19396244	     75.92028461	     14.98401665	     77.85777563	      0.00000000	      0.00000000
      7.93000000	     13.66237119	      7.08938632	   -172.30001696	      0.26345950	      0.75490479	     -0.93685316	     24.02436002	    -33.93840248	    -34.70821759	     19.18348627	      0.33481500	    -12.13646310	      0.00000000	      0.00000000	     40.81342355	    -39.89272258	    -10.22724487	     18.61818228	      0.32494858	    -14.82901038	      0.00000000	      0.00000000	    -13.90363559	      3.57304951	     -2.56539271	     28.51592377	    -18.05110742	     78.06876091	     21.58992904	     82.80010688	      0.00000000	      0.00000000	     30.60329696	    -16.42475548	     76.47767449	     15.28306333	     78.52035824	      0.00000000	      0.00000000
      7.93500000	     13.44777437	      7.23296159	   -172.14147366	      0.26201547	      0.75537242	     -0.93676491	     23.47673745	    -33.74170413	    -35.06042755	     19.04934151	      0.33247373	    -11.99545001	      0.00000000	      0.00000000	     40.55508255	    -39.93498093	     -9.91038470	     18.41961771	      0.32148298	    -14.80739061	      0.00000000	      0.00000000	    -13.60801099	      3.73580483	     -2.75488047	     28.17514858	    -18.05890075	     77.80897899	     21.65832163	     82.73885485	      0.00000000	      0.00000000	     30.28281290	    -16.45214455	     76.35713836	     15.26830215	     78.63204986	      0.00000000	      0.00000000
      7.94000000	     13.13599421	      7.10636441	   -172.20746401	      0.26046117	      0.75607091	     -0.93688777	     23.07885529	    -33.72806319	    -34.95419184	     19.00089020	      0.33162809	    -11.91621606	      0.00000000	      0.00000000	     39.88951637	    -39.98626898	    -10.38228025	     18.37973136	      0.32078683	    -14.66761110	      0.00000000	      0.00000000	    -13.47259965	      3.57254882	     -2.71142414	     27.94401597	    -18.13848176	     77.97376229	     21.81836000	     83.00729154	      0.00000000	      0.00000000	     30.08136111	    -16.54021542	     76.46854056	     15.40739774	     79.15915292	      0.00000000	      0.00000000
      7.94500000	     13.17773990	      7.11030533	   -172.23688255	      0.25921049	      0.75610720	     -0.93690868	     23.06988004	    -33.70915185	    -34.92325526	     19.05945607	      0.33265026	    -11.81287199	      0.00000000	      0.00000000	     39.81977856	    -40.02361700	    -10.43730794	     18.40532417	      0.32123351	    -14.57360106	      0.00000000	      0.00000000	    -12.91806073	      3.54503610	     -2.76802625	     27.53783389	    -18.09919031	     77.59036899	     21.73935365	     82.46960050	      0.00000000	      0.00000000	     29.68097137	    -16.53207760	     76.21849272	     15.40493512	     78.73685463	      0.00000000	      0.00000000
      7.95000000	     12.86117928	      7.36155600	   -171.80216354	      0.25785271	      0.75666009	     -0.93628279	     22.12067164	    -33.42733742	    -35.57938506	     18.70936515	      0.32654002	    -11.64815426	      0.00000000	      0.00000000	     39.78395417	    -39.99927717	     -9.70633964	     18.29328169	      0.31927800	    -14.53580447	      0.00000000	      0.00000000	    -12.69314768	      3.89214275	     -3.18323862	     27.15264192	    -18.11378013	     77.08526325	     21.79032707	     82.38437225	      0.00000000	      0.00000000	     29.35694674	    -16.39435031	     76.07228623	     15.11250480	     78.48376303	      0.00000000	      0.00000000
      7.95500000	     12.38677060	      7.16294990	   -172.02422818	      0.25604533	      0.75769244	     -0.93664722	     21.61101402	    -33.37959315	    -35.37093628	     18.58582601	      0.32438386	    -11.68718683	      0.00000000	      0.00000000	     38.70631203	    -40.14535255	    -10.56740578	     18.18453499	      0.31738001	    -14.37958306	      0.00000000	      0.00000000	    -12.76456447	      3.63757475	     -2.99464726	     27.15775246	    -18.30796046	     78.12212802	     22.16539640	     82.92207926	      0.00000000	      0.00000000	     29.21202889	    -16.68684729	     76.32251591	     15.54600349	     79.86020947	      0.00000000	      0.00000000
      7.96000000	     12.09974353	      7.13838124	   -171.98551243	      0.25451473	      0.75830850	     -0.93656300	     21.08775960	    -33.28910088	    -35.52263300	     18.41781615	      0.32145153	    -11.67044385	      0.00000000	      0.00000000	     38.20341668	    -40.17795800	    -10.71358394	     18.10489783	      0.31599008	    -14.26110016	      0.00000000	      0.00000000	    -12.57804552	      3.60969349	     -3.07417112	     26.81523460	    -18.31182702	     77.74267176	     22.20030842	     83.15080728	      0.00000000	      0.00000000	     28.89924461	    -16.70064528	     76.11777024	     15.53761283	     80.15552901	      0.00000000	      0.00000000
      7.96500000	     11.88217961	      7.39673423	   -171.74383535	      0.25304143	      0.75866058	     -0.93615232	     20.41206135	    -32.96716273	    -36.02203396	     18.15834141	      0.31692284	    -11.58935717	      0.00000000	      0.00000000	     38.21809904	    -40.31990483	    -10.28612533	     18.13715512	      0.31655307	    -14.15321631	      0.00000000	      0.00000000	    -12.24015529	      3.93538109	     -3.28508435	     26.46701653	    -18.38581387	     77.41646565	     22.24277669	     83.22549075	      0.00000000	      0.00000000	     28.61033041	    -16.66159770	     76.30583642	     15.53323201	     80.54511365	      0.00000000	      0.00000000
      7.97000000	     11.49564650	      7.17549624	   -171.93549092	      0.25135231	      0.75960647	     -0.93641042	     19.94351374	    -32.95241434	    -35.83054970	     17.94692034	      0.31323285	    -11.62735290	      0.00000000	      0.00000000	     37.20508165	    -40.35054048	    -10.99858134	     17.95674671	      0.31340435	    -14.02827751	      0.00000000	      0.00000000	    -12.21244306	      3.64905180	     -3.14325505	     26.27548361	    -18.45189653	     77.84917469	     22.45337372	     83.01715364	      0.00000000	      0.00000000	     28.37483137	    -16.73580881	     76.27276227	     15.56963072	     80.53375802	      0.00000000	      0.00000000
      7.97500000	     11.17582263	      7.10073428	   -172.04895762	      0.24966279	      0.76031595	     -0.93661336	     19.49178856	    -32.85189537	    -35.78778630	     17.80366267	      0.31073253	    -11.50985844	      0.00000000	      0.00000000	     36.49507786	    -40.46392164	    -11.49887963	     17.85065469	      0.31155270	    -13.96855295	      0.00000000	      0.00000000	    -12.06192043	      3.53930967	     -3.08797558	     25.76290195	    -18.29976103	     76.60055999	     22.26331345	     83.59297931	      0.00000000	      0.00000000	     28.03746263	    -16.86166783	     76.25742258	     15.70872302	     80.24892064	      0.00000000	      0.00000000
